<?xml version="1.0" standalone="no"?>
<!DOCTYPE svg PUBLIC "-//W3C//DTD SVG 20010904//EN"
 "http://www.w3.org/TR/2001/REC-SVG-20010904/DTD/svg10.dtd">
<svg version="1.0" xmlns="http://www.w3.org/2000/svg"
 width="300.000000pt" height="300.000000pt" viewBox="0 0 300.000000 300.000000"
 preserveAspectRatio="xMidYMid meet">
<metadata>
Created by potrace 1.10, written by Peter Selinger 2001-2011
</metadata>
<g transform="translate(0.000000,300.000000) scale(0.050000,-0.050000)"
fill="#000000" stroke="none">
<path d="M2750 5060 c-660 -147 -1221 -448 -1672 -898 -508 -508 -531 -852
-89 -1375 133 -158 187 -240 243 -375 168 -402 555 -399 774 5 138 252 155
421 135 1283 -12 487 28 616 270 878 587 633 1796 195 1773 -642 -9 -331 138
-494 616 -687 156 -63 201 -98 100 -78 -176 34 -233 33 -311 -9 -43 -23 -88
-42 -101 -42 -37 0 -83 -67 -92 -136 -18 -131 168 -349 348 -409 10 -3 -1 -51
-24 -105 -265 -624 -748 -800 -1599 -582 -292 75 -389 175 -511 526 -45 132
-201 88 -184 -51 39 -329 318 -623 639 -676 91 -15 93 0 -13 -151 -246 -352
-312 -616 -153 -616 71 0 112 47 160 186 52 151 163 315 278 410 l93 78 242
-10 c211 -8 263 -3 395 36 139 42 165 44 298 23 507 -81 894 282 869 813 -6
130 -2 249 8 268 156 291 22 492 -531 798 -235 130 -336 232 -316 320 164 739
-751 1416 -1645 1218z m-597 -439 c-211 -234 -244 -393 -237 -1115 9 -803 -42
-1038 -245 -1134 -138 -66 -157 -52 -249 170 -48 115 -104 200 -234 350 -222
256 -297 407 -283 566 30 327 363 671 1063 1095 133 80 245 147 249 147 4 0
-25 -36 -64 -79z m2917 -1583 c0 -26 7 -53 16 -59 31 -24 33 -137 2 -126 -20
8 -25 2 -16 -21 24 -63 -117 -192 -212 -192 -49 0 -266 286 -234 310 18 13 28
30 20 37 -7 7 5 13 27 13 21 0 50 11 63 24 13 13 60 25 106 28 45 3 92 14 104
26 41 41 124 14 124 -40z m-38 -630 c-28 -292 -240 -568 -436 -568 -59 0 -74
27 -31 54 128 82 342 403 384 576 35 147 99 100 83 -62z"/>
<path d="M3085 4000 c-277 -125 -357 -360 -123 -360 90 0 136 -20 238 -103
145 -119 316 -6 292 195 -32 274 -180 372 -407 268z"/>
</g>
</svg>
